<svg width="162" height="41" viewBox="0 0 162 41" fill="none" xmlns="http://www.w3.org/2000/svg">
<path d="M0.671875 11.9922H14.168V12.7148C13.6732 12.7148 13.2695 12.7474 12.957 12.8125C12.6445 12.8776 12.3971 12.9753 12.2148 13.1055C12.0326 13.2357 11.9023 13.3919 11.8242 13.5742C11.7591 13.7435 11.7266 13.9388 11.7266 14.1602C11.7266 14.3424 11.7331 14.5378 11.7461 14.7461C11.7721 14.9414 11.8177 15.1562 11.8828 15.3906C12.8203 19.1797 13.9661 22.8971 15.3203 26.543C16.6875 30.1758 18.25 33.7826 20.0078 37.3633C20.8802 35.6576 21.7396 33.8997 22.5859 32.0898C23.4323 30.2669 24.2266 28.418 24.9688 26.543C25.7109 24.668 26.375 22.7734 26.9609 20.8594C27.5469 18.9323 28.0286 17.0052 28.4062 15.0781V14.8828C28.4062 14.5703 28.3477 14.2839 28.2305 14.0234C28.1133 13.75 27.918 13.5221 27.6445 13.3398C27.3841 13.1445 27.0391 12.9948 26.6094 12.8906C26.1927 12.7734 25.6719 12.7148 25.0469 12.7148V11.9922H33.6797C33.224 13.4245 32.6966 14.9219 32.0977 16.4844C31.4987 18.0469 30.8477 19.6289 30.1445 21.2305C29.4544 22.819 28.7318 24.4141 27.9766 26.0156C27.2214 27.6172 26.4596 29.1732 25.6914 30.6836C24.9362 32.181 24.194 33.6198 23.4648 35C22.7357 36.3802 22.0456 37.6497 21.3945 38.8086L14.4805 40C12.5013 35.9505 10.75 31.875 9.22656 27.7734C7.71615 23.6719 6.41406 19.5182 5.32031 15.3125C5.20312 15.0391 5.02734 14.7526 4.79297 14.4531C4.57161 14.1536 4.27214 13.8737 3.89453 13.6133C3.51693 13.3529 3.0612 13.138 2.52734 12.9688C2.00651 12.7995 1.38802 12.7148 0.671875 12.7148V11.9922ZM60.3203 18.2422C59.9427 17.4219 59.4479 16.6927 58.8359 16.0547C58.237 15.4167 57.5599 14.8763 56.8047 14.4336C56.0625 13.9909 55.2747 13.6589 54.4414 13.4375C53.6081 13.2031 52.7812 13.0859 51.9609 13.0859C51.0625 13.0859 50.2161 13.2487 49.4219 13.5742C48.6276 13.8867 47.8854 14.3229 47.1953 14.8828C46.5182 15.4297 45.8997 16.0872 45.3398 16.8555C44.7799 17.6107 44.2852 18.431 43.8555 19.3164C43.4388 20.1888 43.0938 21.1068 42.8203 22.0703C42.5469 23.0339 42.3516 23.9974 42.2344 24.9609H58.875C58.6016 25.5078 58.3932 26.0872 58.25 26.6992C58.1068 27.2982 58.0026 27.8581 57.9375 28.3789C57.8594 28.9909 57.8138 29.5833 57.8008 30.1562L57.1562 30.2734C56.987 29.4401 56.7786 28.75 56.5312 28.2031C56.2839 27.6562 55.9128 27.2266 55.418 26.9141C54.9232 26.6016 54.2591 26.3867 53.4258 26.2695C52.6055 26.1393 51.5312 26.0742 50.2031 26.0742H42.1172V26.9141C42.1172 27.9688 42.2409 29.0039 42.4883 30.0195C42.7357 31.0352 43.0872 32.0052 43.543 32.9297C43.9987 33.8411 44.5586 34.681 45.2227 35.4492C45.8867 36.2174 46.6289 36.888 47.4492 37.4609C48.2695 38.0208 49.168 38.457 50.1445 38.7695C51.1211 39.082 52.1562 39.2383 53.25 39.2383C54.2396 39.2383 55.112 39.1471 55.8672 38.9648C56.6224 38.7695 57.2734 38.5286 57.8203 38.2422C58.3802 37.9557 58.849 37.6432 59.2266 37.3047C59.6042 36.9531 59.9167 36.6211 60.1641 36.3086C60.4115 35.9961 60.5938 35.7227 60.7109 35.4883C60.8411 35.2409 60.9388 35.0781 61.0039 35L60.6914 37.7539C60.3919 38.1706 59.9557 38.5742 59.3828 38.9648C58.8099 39.3424 58.1263 39.6875 57.332 40C56.5508 40.2995 55.6719 40.5404 54.6953 40.7227C53.7188 40.9049 52.6641 40.9961 51.5312 40.9961C49.3568 40.9961 47.2995 40.6771 45.3594 40.0391C43.4323 39.401 41.7331 38.4961 40.2617 37.3242C38.8034 36.1523 37.638 34.7396 36.7656 33.0859C35.9062 31.4193 35.4635 29.5638 35.4375 27.5195C35.4766 25.4102 35.8411 23.5156 36.5312 21.8359C37.2344 20.1432 38.1654 18.6719 39.3242 17.4219C40.4961 16.1589 41.8568 15.1172 43.4062 14.2969C44.9557 13.4635 46.6094 12.8451 48.3672 12.4414C49.2917 12.2201 50.3529 12.0768 51.5508 12.0117C52.7487 11.9466 53.9531 11.9141 55.1641 11.9141C56.3359 11.9141 57.4362 11.9271 58.4648 11.9531C59.5065 11.9792 60.3789 11.9922 61.082 11.9922C60.9388 12.6042 60.8346 13.151 60.7695 13.6328C60.7174 14.1016 60.6914 14.5443 60.6914 14.9609C60.6914 15.5469 60.737 16.0938 60.8281 16.6016C60.9193 17.0964 61.043 17.6302 61.1992 18.2031L60.3203 18.2422ZM78.4258 40.957C76.5378 40.957 74.7539 40.638 73.0742 40C71.4076 39.362 69.9427 38.4701 68.6797 37.3242C67.4297 36.1654 66.4401 34.7917 65.7109 33.2031C64.9818 31.6146 64.6172 29.8698 64.6172 27.9688C64.6172 26.1849 64.9883 24.4987 65.7305 22.9102C66.4727 21.3216 67.5339 19.8698 68.9141 18.5547C70.2943 17.2266 71.9674 16.0612 73.9336 15.0586C75.8997 14.043 78.1003 13.2227 80.5352 12.5977L79.0508 11.5625C78.1263 10.9375 77.4622 10.2018 77.0586 9.35547C76.6549 8.49609 76.4531 7.61719 76.4531 6.71875C76.4531 6.06771 76.5443 5.42318 76.7266 4.78516C76.9219 4.14714 77.1888 3.55469 77.5273 3.00781C77.8659 2.46094 78.263 1.97917 78.7188 1.5625C79.1745 1.13281 79.6758 0.800781 80.2227 0.566406L80.6914 1.28906C79.819 1.91406 79.3828 2.63021 79.3828 3.4375C79.3828 4.17969 79.7214 4.97396 80.3984 5.82031C81.0755 6.66667 82.0586 7.55208 83.3477 8.47656C85.5221 10.0651 87.4297 11.5625 89.0703 12.9688C90.724 14.362 92.1042 15.7487 93.2109 17.1289C94.3307 18.5091 95.1771 19.9154 95.75 21.3477C96.3229 22.7669 96.6289 24.3034 96.668 25.957C96.668 27.6367 96.4271 29.1732 95.9453 30.5664C95.4635 31.9466 94.7995 33.1966 93.9531 34.3164C93.1068 35.4232 92.1042 36.3932 90.9453 37.2266C89.7865 38.0599 88.5299 38.7565 87.1758 39.3164C85.8216 39.8633 84.4023 40.2734 82.918 40.5469C81.4336 40.8203 79.9362 40.957 78.4258 40.957ZM90.0664 27.5586C90.0664 26.2565 89.9232 25.026 89.6367 23.8672C89.3633 22.6953 88.9076 21.5495 88.2695 20.4297C87.6445 19.3099 86.8112 18.1966 85.7695 17.0898C84.7409 15.9831 83.4648 14.8438 81.9414 13.6719C80.9128 13.8932 79.9362 14.2383 79.0117 14.707C78.0872 15.1628 77.2279 15.7227 76.4336 16.3867C75.6393 17.0378 74.9167 17.7799 74.2656 18.6133C73.6276 19.4336 73.0807 20.3125 72.625 21.25C72.1823 22.1745 71.8372 23.1445 71.5898 24.1602C71.3424 25.1628 71.2188 26.1784 71.2188 27.207C71.2188 28.2227 71.3294 29.2253 71.5508 30.2148C71.7721 31.1914 72.0846 32.1289 72.4883 33.0273C72.9049 33.9128 73.4128 34.7331 74.0117 35.4883C74.6107 36.2435 75.2812 36.8945 76.0234 37.4414C76.7786 37.9883 77.599 38.418 78.4844 38.7305C79.3828 39.043 80.3333 39.1992 81.3359 39.1992C82.5469 39.1992 83.6797 38.9193 84.7344 38.3594C85.8021 37.7865 86.7266 36.9922 87.5078 35.9766C88.3021 34.9479 88.9271 33.724 89.3828 32.3047C89.8385 30.8724 90.0664 29.2904 90.0664 27.5586ZM128.934 39.7656C127.749 40.2474 126.681 40.5729 125.73 40.7422C124.78 40.9115 123.94 40.9961 123.211 40.9961C122.299 40.9961 121.388 40.7552 120.477 40.2734C119.578 39.7917 118.706 39.1797 117.859 38.4375C117.026 37.6823 116.238 36.849 115.496 35.9375C114.754 35.026 114.083 34.1341 113.484 33.2617C112.898 32.3893 112.397 31.5951 111.98 30.8789C111.577 30.1628 111.29 29.6289 111.121 29.2773C112.775 29.0039 114.253 28.5091 115.555 27.793C116.115 27.4805 116.661 27.1094 117.195 26.6797C117.729 26.25 118.204 25.7422 118.621 25.1562C119.038 24.5703 119.37 23.8997 119.617 23.1445C119.878 22.3893 120.008 21.5299 120.008 20.5664C120.008 19.694 119.897 18.9062 119.676 18.2031C119.454 17.487 119.161 16.8555 118.797 16.3086C118.432 15.7487 118.009 15.2734 117.527 14.8828C117.046 14.4792 116.544 14.1471 116.023 13.8867C115.503 13.6263 114.975 13.4375 114.441 13.3203C113.921 13.1901 113.432 13.125 112.977 13.125C112.286 13.125 111.714 13.1966 111.258 13.3398C110.815 13.4831 110.464 13.6784 110.203 13.9258C109.943 14.1602 109.76 14.4401 109.656 14.7656C109.565 15.0781 109.52 15.4102 109.52 15.7617V36.5625C109.52 36.8229 109.559 37.1094 109.637 37.4219C109.728 37.7344 109.891 38.0273 110.125 38.3008C110.372 38.5742 110.724 38.8086 111.18 39.0039C111.635 39.1862 112.234 39.2773 112.977 39.2773V40H99.8906V39.2773C100.581 39.2773 101.147 39.2122 101.59 39.082C102.033 38.9388 102.384 38.75 102.645 38.5156C102.905 38.2682 103.081 37.9883 103.172 37.6758C103.276 37.3633 103.328 37.0312 103.328 36.6797V15.2734C103.328 15.013 103.276 14.7331 103.172 14.4336C103.081 14.1341 102.905 13.8607 102.645 13.6133C102.397 13.3529 102.052 13.138 101.609 12.9688C101.167 12.7995 100.594 12.7148 99.8906 12.7148V11.9922H112.977C114.826 11.9922 116.57 12.1549 118.211 12.4805C119.852 12.806 121.284 13.3203 122.508 14.0234C123.745 14.7135 124.721 15.6055 125.438 16.6992C126.167 17.7799 126.531 19.082 126.531 20.6055C126.531 21.8945 126.264 23.0208 125.73 23.9844C125.21 24.9479 124.513 25.7747 123.641 26.4648C122.781 27.1549 121.798 27.7279 120.691 28.1836C119.598 28.6263 118.478 28.9779 117.332 29.2383C117.775 30.0456 118.263 30.8529 118.797 31.6602C119.331 32.4674 119.891 33.2422 120.477 33.9844C121.062 34.7266 121.648 35.4167 122.234 36.0547C122.833 36.6927 123.413 37.2526 123.973 37.7344C124.533 38.2031 125.053 38.5742 125.535 38.8477C126.03 39.1081 126.466 39.2383 126.844 39.2383C127.026 39.2383 127.273 39.2188 127.586 39.1797C127.911 39.1406 128.263 39.043 128.641 38.8867L128.934 39.7656ZM130.828 25.9961C130.828 24.9154 130.978 23.8086 131.277 22.6758C131.577 21.5299 132.02 20.4297 132.605 19.375C133.191 18.3073 133.914 17.3047 134.773 16.3672C135.646 15.4167 136.642 14.5898 137.762 13.8867C138.895 13.1836 140.158 12.6302 141.551 12.2266C142.944 11.8099 144.454 11.6016 146.082 11.6016C147.762 11.6016 149.305 11.7904 150.711 12.168C152.13 12.5456 153.406 13.0664 154.539 13.7305C155.685 14.3945 156.688 15.1823 157.547 16.0938C158.419 17.0052 159.142 17.9948 159.715 19.0625C160.301 20.1172 160.737 21.237 161.023 22.4219C161.323 23.6068 161.473 24.7982 161.473 25.9961C161.473 27.1419 161.323 28.3008 161.023 29.4727C160.737 30.6445 160.301 31.7773 159.715 32.8711C159.142 33.9648 158.419 34.9935 157.547 35.957C156.688 36.9206 155.685 37.7604 154.539 38.4766C153.406 39.1927 152.13 39.7591 150.711 40.1758C149.305 40.5924 147.762 40.8008 146.082 40.8008C144.428 40.8008 142.905 40.5924 141.512 40.1758C140.118 39.7721 138.855 39.2122 137.723 38.4961C136.603 37.7799 135.613 36.9401 134.754 35.9766C133.895 35.013 133.172 33.9844 132.586 32.8906C132 31.7969 131.557 30.6641 131.258 29.4922C130.971 28.3073 130.828 27.1419 130.828 25.9961ZM137.547 25.918C137.547 27.0247 137.605 28.1185 137.723 29.1992C137.853 30.2799 138.055 31.3151 138.328 32.3047C138.602 33.2812 138.953 34.1927 139.383 35.0391C139.826 35.8724 140.359 36.6016 140.984 37.2266C141.609 37.8516 142.332 38.3464 143.152 38.7109C143.973 39.0755 144.904 39.2643 145.945 39.2773C146.987 39.2773 147.931 39.0951 148.777 38.7305C149.624 38.3529 150.372 37.8451 151.023 37.207C151.674 36.569 152.234 35.8203 152.703 34.9609C153.172 34.1016 153.562 33.1901 153.875 32.2266C154.188 31.25 154.415 30.2409 154.559 29.1992C154.715 28.1445 154.806 27.1159 154.832 26.1133C154.832 25.0846 154.767 24.0495 154.637 23.0078C154.52 21.9661 154.318 20.9701 154.031 20.0195C153.758 19.056 153.4 18.1576 152.957 17.3242C152.514 16.4909 151.974 15.7682 151.336 15.1562C150.698 14.5312 149.962 14.043 149.129 13.6914C148.296 13.3398 147.345 13.1641 146.277 13.1641C145.236 13.1641 144.298 13.3203 143.465 13.6328C142.645 13.9453 141.909 14.388 141.258 14.9609C140.62 15.5339 140.066 16.2109 139.598 16.9922C139.142 17.7734 138.764 18.6393 138.465 19.5898C138.165 20.5404 137.938 21.5495 137.781 22.6172C137.638 23.6849 137.56 24.7852 137.547 25.918Z" fill="#441A74"/>
</svg>
